<?xml version="1.0" encoding="utf-8"?>
<!-- Generator: Adobe Illustrator 26.0.2, SVG Export Plug-In . SVG Version: 6.00 Build 0)  -->
<svg version="1.1" id="Layer_1" xmlns="http://www.w3.org/2000/svg" xmlns:xlink="http://www.w3.org/1999/xlink" x="0px" y="0px"
	 viewBox="0 0 1080 1080" style="enable-background:new 0 0 1080 1080;" xml:space="preserve">
<style type="text/css">
	.st0{stroke:#000000;stroke-miterlimit:10;}
</style>
<g>
	<path class="st0" d="M540,280c198.82,0,360,116.41,360,260c0-198.82-161.18-360-360-360S180,341.18,180,540
		C180,396.41,341.18,280,540,280z"/>
	<path class="st0" d="M540,800c-198.82,0-360-116.41-360-260c0,198.82,161.18,360,360,360s360-161.18,360-360
		C900,683.59,738.82,800,540,800z"/>
</g>
<path class="st0" d="M540,395.33c-186.11,0-336.98,43.35-336.98,96.83c0,27.72,40.54,52.71,105.5,70.37
	c-36.73-13.96-58.52-31.35-58.52-50.2C250,466.31,379.84,429,540,429s290,37.31,290,83.33c0,18.85-21.79,36.24-58.52,50.2
	c64.96-17.65,105.5-42.65,105.5-70.37C876.98,438.69,726.11,395.33,540,395.33z"/>
<circle class="st0" cx="540" cy="540" r="140"/>
</svg>
